<svg width="50" height="50" viewBox="0 0 50 50" fill="none" xmlns="http://www.w3.org/2000/svg">
  <g clip-path="url(#clip0_8293_6932)">
    <path d="M0 6.25C0 2.80273 2.80273 0 6.25 0H43.75C47.1973 0 50 2.80273 50 6.25V34.375C50 37.8223 47.1973 40.625 43.75 40.625H30.2051L18.125 49.6875C17.6562 50.0391 17.0215 50.0977 16.4844 49.834C15.9473 49.5703 15.625 49.0332 15.625 48.4375V40.625H6.25C2.80273 40.625 0 37.8223 0 34.375V6.25ZM14.8438 14.0625C13.5449 14.0625 12.5 15.1074 12.5 16.4063C12.5 17.7051 13.5449 18.75 14.8438 18.75H35.1562C36.4551 18.75 37.5 17.7051 37.5 16.4063C37.5 15.1074 36.4551 14.0625 35.1562 14.0625H14.8438ZM14.8438 23.4375C13.5449 23.4375 12.5 24.4824 12.5 25.7813C12.5 27.0801 13.5449 28.125 14.8438 28.125H25.7812C27.0801 28.125 28.125 27.0801 28.125 25.7813C28.125 24.4824 27.0801 23.4375 25.7812 23.4375H14.8438Z" fill="#1D3150"/>
  </g>
  <defs>
    <clipPath id="clip0_8293_6932">
      <rect width="50" height="50" fill="white"/>
    </clipPath>
  </defs>
</svg>